<?xml version="1.0" encoding="UTF-8" standalone="no"?>
<svg
   width="16"
   height="16"
   viewBox="0 0 16 16"
   version="1.1"
   id="svg7"
   sodipodi:docname="document-open-recent.svg"
   inkscape:version="1.2.2 (b0a8486541, 2022-12-01)"
   xmlns:inkscape="http://www.inkscape.org/namespaces/inkscape"
   xmlns:sodipodi="http://sodipodi.sourceforge.net/DTD/sodipodi-0.dtd"
   xmlns="http://www.w3.org/2000/svg"
   xmlns:svg="http://www.w3.org/2000/svg">
  <sodipodi:namedview
     id="namedview9"
     pagecolor="#ffffff"
     bordercolor="#000000"
     borderopacity="0.25"
     inkscape:showpageshadow="2"
     inkscape:pageopacity="0.0"
     inkscape:pagecheckerboard="0"
     inkscape:deskcolor="#d1d1d1"
     showgrid="false"
     inkscape:zoom="54"
     inkscape:cx="8"
     inkscape:cy="8"
     inkscape:window-width="1883"
     inkscape:window-height="1052"
     inkscape:window-x="37"
     inkscape:window-y="0"
     inkscape:window-maximized="1"
     inkscape:current-layer="svg7" />
  <defs
     id="defs3">
    <style
       id="current-color-scheme"
       type="text/css">
   .ColorScheme-Text { color:#aaaaaa; } .ColorScheme-Highlight { color:#5294e2; }
  </style>
  </defs>
  <path
     style="fill:#ffffff"
     class="ColorScheme-Text"
     d="M 8 1 C 6.20855 1 4.4176312 1.6839313 3.0507812 3.0507812 C 0.31708125 5.7844812 0.31708125 10.215519 3.0507812 12.949219 C 5.7844812 15.682919 10.215519 15.682919 12.949219 12.949219 C 15.682919 10.215519 15.682919 5.7844812 12.949219 3.0507812 C 11.582369 1.6839313 9.79145 1 8 1 z M 7.9277344 3 A 5 5 0 0 1 11.535156 4.4648438 A 5 5 0 0 1 11.535156 11.535156 A 5 5 0 0 1 4.4648438 11.535156 A 5 5 0 0 1 4.4648438 4.4648438 A 5 5 0 0 1 7.9277344 3 z M 6.9960938 4 L 6.9960938 4.1328125 L 6.9960938 8.4140625 L 8.703125 10.121094 L 9.3183594 10.736328 L 9.4101562 10.828125 L 10.117188 10.121094 L 10.824219 9.4140625 L 10.730469 9.3203125 L 10.117188 8.7070312 L 8.9960938 7.5859375 L 8.9960938 4.1328125 L 8.9960938 4 L 6.9960938 4 z"
     id="path5" />
</svg>
